<?xml version="1.0" encoding="UTF-8"?>
<svg xmlns="http://www.w3.org/2000/svg" width="24" height="24" viewBox="0 0 24 24">
  <!-- White background inside the blue outline -->
  <path fill="white" d="M5 3h14v18H5z"/>
  
  <!-- Blue outline and elements -->
  <path fill="#007BFF" d="M19 3h-4.18C14.4 1.84 13.3 1 12 1c-1.3 0-2.4.84-2.82 2H5c-1.1 0-2 .9-2 2v14c0 1.1.9 2 2 2h14c1.1 0 2-.9 2-2V5c0-1.1-.9-2-2-2zm-7 0c.55 0 1 .45 1 1s-.45 1-1 1-1-.45-1-1 .45-1 1-1zm7 16H5V5h2v2h10V5h2v14z"/>
  
  <!-- Blue horizontal lines (content) -->
  <path fill="#007BFF" d="M7 11h10v1H7z"/>
  <path fill="#007BFF" d="M7 14h10v1H7z"/>
  <path fill="#007BFF" d="M7 17h7v1H7z"/>
  <path fill="#007BFF" d="M7 8h10v1H7z"/>
</svg>
