<svg xmlns="http://www.w3.org/2000/svg" width="24" height="24" viewBox="0 0 24 24">
  <path fill="currentColor" d="M9.64 7.64c.23-.5.36-1.05.36-1.64 0-1.65-1.35-3-3-3S4 4.35 4 6s1.35 3 3 3c.59 0 1.14-.13 1.64-.36L12 12l-3.36 3.36c-.5-.23-1.05-.36-1.64-.36-1.65 0-3 1.35-3 3s1.35 3 3 3 3-1.35 3-3c0-.59-.13-1.14-.36-1.64L12 14l5 5h5v-2L9.64 7.64zM6 8c-1.1 0-2-.9-2-2s.9-2 2-2 2 .9 2 2-.9 2-2 2zm0 12c-1.1 0-2-.9-2-2s.9-2 2-2 2 .9 2 2-.9 2-2 2zm6-7.5c-.28 0-.5-.22-.5-.5s.22-.5.5-.5.5.22.5.5-.22.5-.5.5zM19 3l-6 6 2 2 7-7V3h-3z" stroke="none" stroke-width="0.5"/>
</svg>
